<?xml version="1.0" standalone="no"?>
<!DOCTYPE svg PUBLIC "-//W3C//DTD SVG 20010904//EN"
 "http://www.w3.org/TR/2001/REC-SVG-20010904/DTD/svg10.dtd">
<svg version="1.0" xmlns="http://www.w3.org/2000/svg"
 width="220.000000pt" height="220.000000pt" viewBox="0 0 220.000000 220.000000"
 preserveAspectRatio="xMidYMid meet">

<g transform="translate(0.000000,220.000000) scale(0.100000,-0.100000)"
fill="#000000" stroke="none">
<path d="M820 1790 c-158 -8 -274 -24 -385 -51 -183 -46 -246 -85 -310 -193
-33 -57 -35 -65 -35 -151 0 -122 25 -216 93 -351 114 -225 276 -327 611 -385
92 -16 162 -19 405 -19 356 0 489 17 658 82 222 85 272 153 259 348 -23 327
-52 444 -132 539 -39 46 -81 64 -259 109 -271 68 -548 90 -905 72z m515 -61
c209 -22 478 -80 558 -121 78 -39 130 -158 152 -351 25 -210 24 -294 -3 -345
-44 -83 -227 -165 -448 -201 -182 -29 -604 -30 -770 -2 -332 57 -483 150 -591
365 -62 123 -93 230 -93 320 0 53 5 70 38 125 42 72 73 99 152 129 130 50 303
81 520 92 232 12 279 11 485 -11z"/>
</g>
</svg>
