<?xml version="1.0" standalone="no"?>
<!DOCTYPE svg PUBLIC "-//W3C//DTD SVG 20010904//EN"
 "http://www.w3.org/TR/2001/REC-SVG-20010904/DTD/svg10.dtd">
<svg version="1.0" xmlns="http://www.w3.org/2000/svg"
 width="220.000000pt" height="220.000000pt" viewBox="0 0 220.000000 220.000000"
 preserveAspectRatio="xMidYMid meet">

<g transform="translate(0.000000,220.000000) scale(0.100000,-0.100000)"
fill="#000000" stroke="none">
<path d="M705 1706 c-246 -47 -343 -112 -394 -264 -37 -108 -24 -268 30 -387
95 -210 284 -395 539 -528 199 -104 331 -132 545 -117 173 11 254 42 355 134
64 58 96 114 122 209 19 70 22 109 22 272 1 219 -11 299 -59 395 -70 140 -188
234 -339 272 -84 20 -117 22 -421 25 -242 1 -349 -2 -400 -11z m793 -65 c46
-11 105 -33 130 -48 115 -67 206 -199 233 -338 8 -42 13 -133 13 -230 -1 -285
-55 -408 -219 -500 -82 -46 -157 -64 -278 -66 -183 -3 -283 23 -467 118 -193
101 -343 227 -440 369 -118 173 -155 330 -109 466 48 142 132 197 374 244 52
10 150 12 375 10 273 -3 314 -5 388 -25z"/>
</g>
</svg>
