<?xml version="1.0" standalone="no"?>
<!DOCTYPE svg PUBLIC "-//W3C//DTD SVG 20010904//EN"
 "http://www.w3.org/TR/2001/REC-SVG-20010904/DTD/svg10.dtd">
<svg version="1.0" xmlns="http://www.w3.org/2000/svg"
 width="220.000000pt" height="220.000000pt" viewBox="0 0 220.000000 220.000000"
 preserveAspectRatio="xMidYMid meet">

<g transform="translate(0.000000,220.000000) scale(0.100000,-0.100000)"
fill="#000000" stroke="none">
<path d="M885 1704 c-105 -8 -273 -36 -335 -56 -133 -42 -221 -112 -276 -220
-25 -50 -27 -61 -28 -198 -1 -142 0 -147 32 -232 42 -110 72 -154 168 -250 60
-61 97 -87 168 -123 179 -89 351 -121 586 -111 164 7 246 26 377 86 147 69
243 152 315 275 65 112 73 146 72 291 0 143 -16 202 -75 290 -75 111 -229 190
-449 228 -92 17 -438 29 -555 20z m525 -70 c120 -21 267 -73 337 -119 61 -41
106 -99 141 -183 32 -78 36 -242 8 -317 -67 -173 -172 -283 -348 -364 -121
-56 -215 -79 -353 -86 -202 -11 -378 24 -552 111 -77 38 -105 60 -173 131 -87
89 -118 144 -160 278 -19 61 -21 83 -15 170 8 109 28 164 86 229 78 90 265
149 534 170 106 8 403 -4 495 -20z"/>
</g>
</svg>
