<?xml version="1.0" standalone="no"?>
<!DOCTYPE svg PUBLIC "-//W3C//DTD SVG 20010904//EN"
 "http://www.w3.org/TR/2001/REC-SVG-20010904/DTD/svg10.dtd">
<svg version="1.0" xmlns="http://www.w3.org/2000/svg"
 width="220.000000pt" height="220.000000pt" viewBox="0 0 220.000000 220.000000"
 preserveAspectRatio="xMidYMid meet">

<g transform="translate(0.000000,220.000000) scale(0.100000,-0.100000)"
fill="#000000" stroke="none">
<path d="M805 1635 c-305 -32 -457 -109 -500 -252 -19 -62 -19 -184 0 -298 20
-123 35 -168 96 -287 97 -190 205 -274 414 -323 92 -22 128 -25 287 -25 196 0
251 6 423 47 133 31 214 69 278 131 103 99 133 222 125 511 -5 168 -8 192 -28
231 -40 78 -71 118 -112 145 -133 88 -665 153 -983 120z m542 -66 c247 -31
403 -79 450 -139 7 -8 26 -41 43 -73 30 -55 31 -63 37 -216 9 -247 -25 -388
-114 -472 -55 -53 -142 -93 -268 -122 -168 -40 -227 -47 -393 -47 -127 0 -169
4 -257 25 -207 49 -300 120 -393 303 -62 119 -77 164 -97 287 -19 114 -19 174
0 238 39 132 183 201 480 231 156 16 295 12 512 -15z"/>
</g>
</svg>
