<?xml version="1.0" standalone="no"?>
<!DOCTYPE svg PUBLIC "-//W3C//DTD SVG 20010904//EN"
 "http://www.w3.org/TR/2001/REC-SVG-20010904/DTD/svg10.dtd">
<svg version="1.0" xmlns="http://www.w3.org/2000/svg"
 width="220.000000pt" height="220.000000pt" viewBox="0 0 220.000000 220.000000"
 preserveAspectRatio="xMidYMid meet">

<g transform="translate(0.000000,220.000000) scale(0.100000,-0.100000)"
fill="#000000" stroke="none">
<path d="M1055 1659 c-71 -10 -200 -30 -285 -45 -250 -44 -375 -113 -437 -244
-25 -51 -26 -65 -27 -200 l0 -145 47 -97 c110 -227 311 -389 558 -450 81 -20
119 -23 274 -23 202 1 267 13 357 66 139 82 274 255 347 444 52 134 65 216 59
363 -8 186 -44 240 -201 296 -160 58 -435 72 -692 35z m499 -45 c177 -28 281
-78 316 -149 28 -58 38 -205 20 -301 -32 -172 -155 -404 -270 -511 -126 -116
-215 -147 -435 -147 -124 -1 -166 3 -244 22 -98 24 -206 74 -302 139 -82 55
-181 177 -236 290 l-46 96 0 116 c0 104 3 122 26 171 36 76 77 112 177 158 67
31 118 45 240 66 390 68 568 79 754 50z"/>
</g>
</svg>
