<?xml version="1.0" standalone="no"?>
<!DOCTYPE svg PUBLIC "-//W3C//DTD SVG 20010904//EN"
 "http://www.w3.org/TR/2001/REC-SVG-20010904/DTD/svg10.dtd">
<svg version="1.0" xmlns="http://www.w3.org/2000/svg"
 width="220.000000pt" height="220.000000pt" viewBox="0 0 220.000000 220.000000"
 preserveAspectRatio="xMidYMid meet">

<g transform="translate(0.000000,220.000000) scale(0.100000,-0.100000)"
fill="#000000" stroke="none">
<path d="M575 1591 c-116 -16 -230 -37 -255 -47 -59 -23 -151 -113 -189 -183
-36 -70 -49 -179 -31 -267 15 -72 67 -240 108 -351 80 -213 175 -278 462 -319
148 -21 731 -15 970 10 273 29 349 80 422 286 17 46 21 90 25 265 7 269 -5
367 -51 439 -18 28 -46 63 -62 77 -81 74 -338 109 -839 114 -340 4 -356 3
-560 -24z m1044 -50 c165 -21 280 -50 315 -80 10 -9 34 -39 52 -67 45 -71 58
-173 51 -409 -6 -191 -14 -231 -70 -340 -71 -139 -222 -172 -832 -182 -263 -4
-340 -2 -435 11 -287 41 -365 95 -445 309 -83 223 -117 360 -108 437 11 108
106 236 203 274 25 10 139 31 255 47 202 27 222 28 530 24 241 -3 361 -9 484
-24z"/>
</g>
</svg>
